<svg xmlns="http://www.w3.org/2000/svg" viewBox="-593 -262 12 10">
  <defs>
    <style>
      .cls-1 {
        fill: #f8f8f8;
      }
    </style>
  </defs>
  <g id="photo-camera" transform="translate(-593 -298.54)">
    <path id="Path_5" data-name="Path 5" class="cls-1" d="M11.531,38.529a1.573,1.573,0,0,0-1.131-.451H9l-.319-.817a1.127,1.127,0,0,0-.434-.508A1.143,1.143,0,0,0,7.6,36.54H4.4a1.143,1.143,0,0,0-.647.213,1.127,1.127,0,0,0-.434.508L3,38.079H1.6a1.573,1.573,0,0,0-1.131.451A1.454,1.454,0,0,0,0,39.617V45a1.454,1.454,0,0,0,.469,1.088A1.573,1.573,0,0,0,1.6,46.54h8.8a1.573,1.573,0,0,0,1.131-.451A1.454,1.454,0,0,0,12,45V39.617A1.454,1.454,0,0,0,11.531,38.529ZM7.978,44.211A2.752,2.752,0,0,1,6,45a2.752,2.752,0,0,1-1.978-.79,2.612,2.612,0,0,1,0-3.8A2.751,2.751,0,0,1,6,39.617a2.752,2.752,0,0,1,1.978.79,2.612,2.612,0,0,1,0,3.8Z"/>
    <path id="Path_6" data-name="Path 6" class="cls-1" d="M193.656,228.4a1.769,1.769,0,0,0-1.272.508,1.68,1.68,0,0,0,0,2.446,1.847,1.847,0,0,0,2.544,0,1.68,1.68,0,0,0,0-2.446A1.769,1.769,0,0,0,193.656,228.4Z" transform="translate(-187.656 -187.824)"/>
  </g>
</svg>
