<svg xmlns="http://www.w3.org/2000/svg" viewBox="7420 928 32 32">
  <defs>
    <style>
      .cls-1 {
        fill: #00a651;
      }

      .cls-2 {
        fill: #f8f8f8;
      }
    </style>
  </defs>
  <g id="Group_235" data-name="Group 235" transform="translate(7410 689)">
    <circle id="Ellipse_353" data-name="Ellipse 353" class="cls-1" cx="16" cy="16" r="16" transform="translate(10 239)"/>
    <path id="Path_1985" data-name="Path 1985" class="cls-2" d="M150.247,149.681a1.11,1.11,0,0,0-1.56.339l-5.435,8.545-2.6-2.475a1.111,1.111,0,0,0-1.6.063,1.178,1.178,0,0,0,.061,1.636l3.591,3.418.041.026.086.089.157.063.187.078.187.031.268-.005.111-.026.314-.135.051-.036.192-.146.091-.156.005-.005,6.169-9.691A1.182,1.182,0,0,0,150.247,149.681Z" transform="translate(-118.758 99.507)"/>
  </g>
</svg>
