<svg xmlns="http://www.w3.org/2000/svg" viewBox="1340 -187 12 12">
  <defs>
    <style>
      .cls-1 {
        fill: #2f76d1;
      }
    </style>
  </defs>
  <g id="check" transform="translate(1201.242 -336.493)">
    <path id="Path_44" data-name="Path 44" class="cls-1" d="M150.247,149.681a1.11,1.11,0,0,0-1.56.339l-5.435,8.545-2.6-2.475a1.111,1.111,0,0,0-1.6.063,1.178,1.178,0,0,0,.061,1.636l3.591,3.418.041.026.086.089.157.063.187.078.187.031.268-.005.111-.026.314-.135.051-.036.192-.146.091-.156.005-.005,6.169-9.691A1.182,1.182,0,0,0,150.247,149.681Z"/>
  </g>
</svg>
