<svg xmlns="http://www.w3.org/2000/svg" viewBox="5484.196 1802 44.804 28.743">
  <defs>
    <style>
      .cls-1 {
        fill: red;
      }

      .cls-2 {
        fill: #00ff2a;
      }

      .cls-3 {
        fill: #00d8ff;
      }

      .cls-4 {
        fill: #fff600;
      }
    </style>
  </defs>
  <g id="stars" transform="translate(5411.396 1730.2)">
    <path id="Path_1036" data-name="Path 1036" class="cls-1" d="M297.87,139.8l-1.734,7.225-6.936,2.656,6.336,3.89.389,7.414,5.646-4.824,7.18,1.923-2.834-6.858,4.035-6.236-7.4.578Z" transform="translate(-216.4 -60.442)"/>
    <path id="Path_1037" data-name="Path 1037" class="cls-2" d="M165.391,71.8l-2,4.668-4.991.989,3.824,3.357-.589,5.046L166,83.26l4.613,2.112-1.123-4.946,3.446-3.735-5.057-.467Z" transform="translate(-64.848)"/>
    <path id="Path_1038" data-name="Path 1038" class="cls-3" d="M159.224,228.1l-1.812,3.268-3.712.367,2.545,2.723-.8,3.646,3.379-1.578,3.223,1.89-.456-3.7,2.79-2.479-3.668-.711Z" transform="translate(-55.769 -138.927)"/>
    <path id="Path_1039" data-name="Path 1039" class="cls-4" d="M77.691,160.6l-2.012,2.134-2.879-.445,1.4,2.556-1.312,2.612,2.868-.545,2.078,2.056.367-2.9,2.59-1.334-2.634-1.245Z" transform="translate(36.813 -78.93)"/>
  </g>
</svg>
