<svg xmlns="http://www.w3.org/2000/svg" viewBox="-399 -422 12 12">
  <defs>
    <style>
      .cls-1 {
        fill: rgb(25, 57, 116);;
      }
    </style>
  </defs>
  <g id="close-browser" transform="translate(-399 -422)">
    <path id="Path_1" data-name="Path 1" class="cls-1" d="M8.252,6l3.377-3.378a1.277,1.277,0,0,0,0-1.8l-.45-.45a1.277,1.277,0,0,0-1.8,0L6,3.749,2.623.372a1.277,1.277,0,0,0-1.8,0L.372.822a1.278,1.278,0,0,0,0,1.8L3.749,6,.372,9.378a1.278,1.278,0,0,0,0,1.8l.451.45a1.277,1.277,0,0,0,1.8,0L6,8.252l3.377,3.377a1.277,1.277,0,0,0,1.8,0l.45-.45a1.277,1.277,0,0,0,0-1.8Z" transform="translate(0 0)"/>
  </g>
</svg>