<svg xmlns="http://www.w3.org/2000/svg" viewBox="5967 1079 86 86">
  <defs>
    <style>
      .cls-1 {
        fill: #e0e2e2;
      }

      .cls-2 {
        fill: #9a9a9a;
      }

      .cls-3 {
        fill: #c9c8c4;
      }

      .cls-4 {
        fill: #676362;
      }

      .cls-5 {
        fill: #4fc9f8;
      }

      .cls-6 {
        fill: #1c627a;
      }

      .cls-7 {
        fill: #47d86f;
      }

      .cls-8 {
        fill: #10782d;
      }

      .cls-9 {
        fill: #ff9327;
      }

      .cls-10 {
        fill: #884308;
      }
    </style>
  </defs>
  <g id="contacts" transform="translate(5966 1078)">
    <g id="g3093" transform="translate(1 1)">
      <path id="rect2996" class="cls-1" d="M20.735,1H67.265A19.692,19.692,0,0,1,87,20.735V67.265A19.692,19.692,0,0,1,67.265,87H20.735A19.692,19.692,0,0,1,1,67.265V20.735A19.692,19.692,0,0,1,20.735,1Z" transform="translate(-1 -1)"/>
      <path id="path3169" class="cls-1" d="M23.224,3.664H69.341A19.517,19.517,0,0,1,88.9,23.224V69.341A19.517,19.517,0,0,1,69.341,88.9H23.224A19.517,19.517,0,0,1,3.664,69.341V23.224A19.517,19.517,0,0,1,23.224,3.664Z" transform="translate(-3.282 -3.282)"/>
    </g>
    <path id="path3140" class="cls-2" d="M33.738,143.3c-4.515-.134-6.534-.4-9.118-1.2a18.2,18.2,0,0,1-9.344-6.865,15.359,15.359,0,0,1-1.726-3.206c0-.382,6.051-3.037,10-4.386,1.427-.488,4.065-1.282,4.807-1.447.544-.121,3.046-.845,4.4-1.274,2.013-.636,3.1-1.26,3.487-2a24.27,24.27,0,0,0,.8-3.881c.06-.434.165-1.171.234-1.638.216-1.459.178-1.766-.271-2.244-1.586-1.689-2.276-3.311-2.656-6.248a31.418,31.418,0,0,0-.9-4.423,2.137,2.137,0,0,0-.778-.644c-.925-.492-1.316-1.169-1.558-2.7a16.652,16.652,0,0,0-1.025-3.595A9.447,9.447,0,0,1,29.473,94c.038-.889.083-1.062.349-1.345s.37-.316.839-.253c.436.059.52.039.464-.106-.383-.99-.924-5.587-1.266-10.757a11.422,11.422,0,0,1,1.159-5.544,4.82,4.82,0,0,1,2.571-2.745c.317-.114.742-.268.943-.344a5.075,5.075,0,0,0,1.13-.892,11.822,11.822,0,0,1,5.19-3.141c.763-.249,1.947-.663,2.631-.921a11.388,11.388,0,0,1,4.385-.874c2.113-.021,3.432.281,6.546,1.5.976.382,2.352.866,3.059,1.074,2.661.785,4.216,1.811,5.016,3.312.224.421.622,1.086.883,1.48a7.31,7.31,0,0,1,1.38,3.713,33.488,33.488,0,0,1-.759,12.314c-.425,1.838-.449,2-.3,2a.274.274,0,0,0,.2-.121c.128-.206.613-.134.9.133.419.387.534.8.538,1.929a12.759,12.759,0,0,1-.886,4.307,14.959,14.959,0,0,0-.6,2.347,3.291,3.291,0,0,1-1.406,2.667,2.8,2.8,0,0,0-.716.466c-.424.465-.718,1.732-1.389,5.982a8.147,8.147,0,0,1-2.153,4.734l-.615.667.061,1.577a21.325,21.325,0,0,0,.889,5.72c.659,1.36,2.083,2.007,7.433,3.377A75.176,75.176,0,0,1,80.8,131.425a4.1,4.1,0,0,0,.931.232l.013,11.1a32.951,32.951,0,0,1-6.413.548C70.826,143.431,38.123,143.429,33.738,143.3Z" transform="translate(-10.751 -56.603)"/>
    <g id="g3234" transform="translate(70.53 1.686)">
      <g id="g3229" transform="translate(0 0)">
        <g id="g3175">
          <path id="path3177" class="cls-3" d="M486.091,5.788q.241.043.48.092.957.195,1.877.48t1.8.656q.878.37,1.71.822t1.613.978q.78.526,1.5,1.124t1.388,1.261q.663.663,1.261,1.388t1.124,1.5q.526.78.978,1.613t.822,1.71q.37.878.656,1.8t.48,1.877a19.666,19.666,0,0,1,.3,1.946,19.929,19.929,0,0,1,.1,2.005v1.314H486.091V5.788Z" transform="translate(-486.091 -5.788)"/>
        </g>
        <path id="path3188" class="cls-4" d="M527.455,82.87l1.7-4.432h.63L531.6,82.87h-.671l-.514-1.343h-1.853l-.486,1.343Zm1.278-1.82h1.505l-.463-1.227q-.232-.616-.315-.917a5.2,5.2,0,0,1-.241.843Z" transform="translate(-521.526 -68.025)"/>
      </g>
      <g id="g3224" transform="translate(0 20.534)">
        <g id="g3172">
          <path id="path3170" class="cls-5" d="M502.18,149.545v21.493H486.091V149.545Z" transform="translate(-486.091 -149.545)"/>
        </g>
        <path id="path3190" class="cls-6" d="M530.506,215.87v-4.432h1.662a1.573,1.573,0,0,1,1.118.336,1.07,1.07,0,0,1,.35.8.994.994,0,0,1-.62.94,1.037,1.037,0,0,1,.838,1.074q0,1.283-1.658,1.283Zm.588-2.57h.958a2.621,2.621,0,0,0,.53-.044.616.616,0,0,0,.343-.2.6.6,0,0,0,.137-.414.686.686,0,0,0-.123-.428.559.559,0,0,0-.34-.206,3.175,3.175,0,0,0-.621-.046h-.885Zm0,2.047h1.1a3.134,3.134,0,0,0,.385-.021.93.93,0,0,0,.329-.109.6.6,0,0,0,.248-.248.8.8,0,0,0,.086-.382.706.706,0,0,0-.231-.563,1.421,1.421,0,0,0-.894-.2h-1.023Z" transform="translate(-524.14 -202.495)"/>
      </g>
      <g id="g3220" transform="translate(0 41.937)">
        <path id="path3165" class="cls-7" d="M502.18,298.375v21.707H486.091V298.375Z" transform="translate(-486.091 -298.375)"/>
        <path id="path3192" class="cls-8" d="M531.654,362.871l.588.148A1.752,1.752,0,0,1,530.4,364.5a1.845,1.845,0,0,1-1.575-.669,2.671,2.671,0,0,1-.5-1.656,2.211,2.211,0,0,1,.6-1.688,2.085,2.085,0,0,1,1.487-.567,1.652,1.652,0,0,1,1.75,1.287l-.574.139a1.17,1.17,0,0,0-1.186-.926,1.337,1.337,0,0,0-1.1.463,2.478,2.478,0,0,0,.03,2.684,1.349,1.349,0,0,0,1.021.433A1.243,1.243,0,0,0,531.654,362.871Z" transform="translate(-522.271 -351.1)"/>
      </g>
      <g id="g3216" transform="translate(0 63.645)">
        <path id="path3163" class="cls-9" d="M502.18,449.82v1.728a20,20,0,0,1-.1,2.005q-.1.989-.3,1.946t-.481,1.877q-.285.92-.656,1.8t-.822,1.71q-.451.832-.978,1.613t-1.124,1.5q-.6.724-1.261,1.388t-1.388,1.261q-.724.6-1.5,1.124t-1.613.978q-.832.45-1.71.822t-1.8.656q-.92.285-1.877.481-.239.049-.481.091V449.82Z" transform="translate(-486.091 -449.82)"/>
        <path id="path3194" class="cls-10" d="M530.634,499.87v-4.432h1.528a4.49,4.49,0,0,1,.775.06,1.457,1.457,0,0,1,.653.308,1.768,1.768,0,0,1,.509.708,2.829,2.829,0,0,1,.2,1.114,2.6,2.6,0,0,1-.475,1.621,1.88,1.88,0,0,1-1.591.621Zm.588-.523h.945a1.88,1.88,0,0,0,.894-.171,1.085,1.085,0,0,0,.472-.572,2.635,2.635,0,0,0,.162-.984,2.812,2.812,0,0,0-.081-.713,1.42,1.42,0,0,0-.243-.514,1.058,1.058,0,0,0-.412-.32,2.134,2.134,0,0,0-.806-.111h-.931Z" transform="translate(-524.249 -488.9)"/>
      </g>
    </g>
  </g>
</svg>
