<svg xmlns="http://www.w3.org/2000/svg" viewBox="5953 1249 40 40">
  <defs>
    <style>
      .cls-1 {
        fill: rgb(53, 78, 145);
      }
    </style>
  </defs>
  <g id="facebook" transform="translate(7775.8 1635.5)">
    <path id="Path_999" data-name="Path 999" class="cls-1" d="M-1783.467-380.767a8.64,8.64,0,0,0-5.067-5.067c-2.133-.667-4.2-.667-8.2-.667h-12.133c-4,0-6,0-8.2.667a8.64,8.64,0,0,0-5.067,5.067c-.667,2.133-.667,4.2-.667,8.2v12.133c0,4,0,6,.667,8.2a8.64,8.64,0,0,0,5.067,5.067c2.133.667,4.2.667,8.2.667h8.133a.6.6,0,0,1-.6-.6v-16.067h-3.933a.6.6,0,0,1-.6-.6v-5.867a.6.6,0,0,1,.6-.6h4.133v-4.333a6.25,6.25,0,0,1,2.067-5.467,8.729,8.729,0,0,1,5.867-2.2h4.867a.6.6,0,0,1,.6.6v5.467a.6.6,0,0,1-.6.6h-3.4c-1.2,0-1.8.6-1.8,1.667v3.733h5.2a.475.475,0,0,1,.4.2.563.563,0,0,1,.133.467l-.667,5.933a.641.641,0,0,1-.6.533h-4.467v16a.526.526,0,0,1-.533.533,17,17,0,0,0,5.533-.667,8.64,8.64,0,0,0,5.067-5.067c.667-2.133.667-4.2.667-8.2v-12.133C-1782.8-376.567-1782.8-378.567-1783.467-380.767Z"/>
  </g>
</svg>
