<svg xmlns="http://www.w3.org/2000/svg" viewBox="5878 1249 40 40">
  <defs>
    <style>
      .cls-1 {
        fill: rgb(112, 22, 30);
      }

      .cls-2 {
        fill: #fff;
      }
    </style>
  </defs>
  <g id="envelope" transform="translate(7700.8 1635.5)">
    <path id="green_square" class="cls-1" d="M-1796.733-386.5c4,0,6,0,8.2.667a8.639,8.639,0,0,1,5.067,5.067c.667,2.133.667,4.2.667,8.2v12.133c0,4,0,6-.667,8.2a8.64,8.64,0,0,1-5.067,5.067c-2.133.667-4.2.667-8.2.667h-12.133c-4,0-6,0-8.2-.667a8.639,8.639,0,0,1-5.067-5.067c-.667-2.133-.667-4.2-.667-8.2v-12.133c0-4,0-6,.667-8.2a8.64,8.64,0,0,1,5.067-5.067c2.133-.667,4.2-.667,8.2-.667Z"/>
    <path id="envelope-2" data-name="envelope" class="cls-2" d="M-1786.6-352.167h-25.733l7.867-7.867,1.667,1.733a4.528,4.528,0,0,0,6.4.133l.133-.133,1.667-1.733Zm.467-.867V-368.7a.245.245,0,0,0-.067-.2c-.067.067-7.867,8.133-7.867,8.133l7.933,7.933Zm-26.667.067v-15.667a.245.245,0,0,1,.067-.2c.067.067,7.867,8.133,7.867,8.133l-7.933,7.933Zm26.2-16.533-10.067,10.333a3.823,3.823,0,0,1-5.467.067l-.067-.067-10.067-10.333Z" transform="translate(-3.333 -5.667)"/>
  </g>
</svg>
