<svg xmlns="http://www.w3.org/2000/svg" viewBox="556.773 -243.396 60.413 44.793">
  <defs>
    <style>
      .cls-1 {
        fill: #163a69;
      }

      .cls-1, .cls-2, .cls-3 {
        stroke: #f8f8f8;
      }

      .cls-2 {
        fill: #1f4c87;
      }

      .cls-3 {
        fill: #2f76d1;
      }

      .cls-4 {
        fill: #f33;
      }

      .cls-5 {
        fill: #f8f8f8;
      }

      .cls-6 {
        stroke: none;
      }

      .cls-7 {
        fill: none;
      }
    </style>
  </defs>
  <g id="Group_4" data-name="Group 4" transform="translate(473 -457)">
    <g id="Rectangle_38" data-name="Rectangle 38" class="cls-1" transform="matrix(0.951, -0.309, 0.309, 0.951, 83.773, 226.312)">
      <rect class="cls-6" width="23" height="31" rx="2"/>
      <rect class="cls-7" x="0.5" y="0.5" width="22" height="30" rx="1.5"/>
    </g>
    <g id="Rectangle_39" data-name="Rectangle 39" class="cls-2" transform="translate(100 217)">
      <rect class="cls-6" width="25" height="34" rx="2"/>
      <rect class="cls-7" x="0.5" y="0.5" width="24" height="33" rx="1.5"/>
    </g>
    <g id="Rectangle_40" data-name="Rectangle 40" class="cls-3" transform="matrix(0.951, 0.309, -0.309, 0.951, 117.557, 213.604)">
      <rect class="cls-6" width="28" height="38" rx="2"/>
      <rect class="cls-7" x="0.5" y="0.5" width="27" height="37" rx="1.5"/>
    </g>
    <g id="update-arrows" transform="translate(125 234.845)">
      <circle id="Ellipse_16" data-name="Ellipse 16" class="cls-4" cx="8.5" cy="8.5" r="8.5" transform="translate(-4 5.155)"/>
      <path id="Path_23" data-name="Path 23" class="cls-5" d="M16.4,9.936a.327.327,0,0,0-.388.265l-.237,1.17a4.208,4.208,0,0,0-3.664-2.217A4.376,4.376,0,0,0,7.868,13.64a.327.327,0,1,0,.653,0,3.7,3.7,0,0,1,3.594-3.8,3.562,3.562,0,0,1,3.108,1.889l-1.089-.247a.327.327,0,0,0-.388.265.345.345,0,0,0,.251.41l1.87.423a.309.309,0,0,0,.1.006.316.316,0,0,0,.15-.054.346.346,0,0,0,.142-.217l.4-1.975A.346.346,0,0,0,16.4,9.936Z" transform="translate(-7.662)"/>
      <path id="Path_24" data-name="Path 24" class="cls-5" d="M8.413,155.263a.338.338,0,0,0-.316.356,3.894,3.894,0,0,1-.968,2.719,3.49,3.49,0,0,1-2.5,1.2l-.12,0a3.555,3.555,0,0,1-3.056-1.8l1.135.322a.325.325,0,0,0,.4-.244.348.348,0,0,0-.231-.423l-1.847-.523a.312.312,0,0,0-.248.034.343.343,0,0,0-.152.209l-.5,1.951a.347.347,0,0,0,.231.423.31.31,0,0,0,.085.012.33.33,0,0,0,.315-.256l.278-1.1A4.2,4.2,0,0,0,4.5,160.23l.141,0a4.125,4.125,0,0,0,2.96-1.418A4.6,4.6,0,0,0,8.751,155.6.335.335,0,0,0,8.413,155.263Z" transform="translate(0 -142.075)"/>
    </g>
  </g>
</svg>
