<?xml version="1.0" encoding="utf-8"?>
<!-- Generator: Adobe Illustrator 19.0.0, SVG Export Plug-In . SVG Version: 6.00 Build 0)  -->
<svg version="1.1" id="Layer_1" xmlns="http://www.w3.org/2000/svg" xmlns:xlink="http://www.w3.org/1999/xlink" x="0px" y="0px"
	 viewBox="-320 573.4 22 22" style="enable-background:new -320 573.4 22 22;" xml:space="preserve">
<style type="text/css">
	.st0{fill:#2F76D1;}
	.st1{fill:#F8F8F8;}
</style>
<g id="plus" transform="translate(1252 -461)">
	<circle id="Ellipse_24" class="st0" cx="-1561" cy="1045.4" r="11"/>
	<path id="Rectangle_61" class="st1" d="M-1565.5,1044.4h9c0.8,0,1.5,0.7,1.5,1.5l0,0c0,0.8-0.7,1.5-1.5,1.5h-9
		c-0.8,0-1.5-0.7-1.5-1.5l0,0C-1567,1045.1-1566.3,1044.4-1565.5,1044.4z"/>
	<path id="Rectangle_62" class="st1" d="M-1559.5,1041.4v9c0,0.8-0.7,1.5-1.5,1.5l0,0c-0.8,0-1.5-0.7-1.5-1.5v-9
		c0-0.8,0.7-1.5,1.5-1.5l0,0C-1560.2,1039.9-1559.5,1040.6-1559.5,1041.4z"/>
</g>
</svg>
