<?xml version="1.0" encoding="utf-8"?>
<!-- Generator: Adobe Illustrator 19.0.0, SVG Export Plug-In . SVG Version: 6.00 Build 0)  -->
<svg version="1.1" id="Layer_1" xmlns="http://www.w3.org/2000/svg" xmlns:xlink="http://www.w3.org/1999/xlink" x="0px" y="0px"
	 viewBox="-318 571.5 25.8 25.9" style="enable-background:new -318 571.5 25.8 25.9;" xml:space="preserve">
<style type="text/css">
	.st0{fill:#00A651;}
	.st1{fill:#FFFFFF;}
	.st2{fill:#F8F8F8;}
</style>
<g id="Group_6" transform="translate(435 -355.9)">
	<path id="Path_21" class="st0" d="M-753,927.4h24.3c0.9,0,1.6,0.7,1.6,1.5c0,0,0,0,0,0v24.3C-736.5,943.9-743.3,937.2-753,927.4z"
		/>
	<g id="plus" transform="translate(1252 -461)">
		<circle id="Ellipse_24" class="st1" cx="-1986.3" cy="1396.6" r="5.2"/>
		<circle id="Ellipse_24_1_" class="st0" cx="-1986.3" cy="1396.6" r="4.3"/>
		<path id="Rectangle_61" class="st2" d="M-1988.7,1396.1h4.8c0.4,0,0.8,0.4,0.8,0.8l0,0c0,0.4-0.4,0.8-0.8,0.8h-4.8
			c-0.4,0-0.8-0.4-0.8-0.8l0,0C-1989.5,1396.5-1989.2,1396.1-1988.7,1396.1z"/>
		<path id="Rectangle_62" class="st2" d="M-1985.5,1394.5v4.8c0,0.4-0.4,0.8-0.8,0.8l0,0c-0.4,0-0.8-0.4-0.8-0.8v-4.8
			c0-0.4,0.4-0.8,0.8-0.8l0,0C-1985.9,1393.7-1985.5,1394-1985.5,1394.5z"/>
	</g>
</g>
</svg>
