<svg xmlns="http://www.w3.org/2000/svg" viewBox="604.168 -259 25.832 25.863">
  <defs>
    <style>
      .cls-1 {
        fill: #00a651;
      }

      .cls-2 {
        fill: #f8f8f8;
      }
    </style>
  </defs>
  <g id="Group_6" data-name="Group 6" transform="translate(435 -355.9)">
    <path id="Path_21" data-name="Path 21" class="cls-1" d="M300,96.9h24.256a1.56,1.56,0,0,1,1.575,1.575v24.288C316.475,113.407,309.734,106.634,300,96.9Z" transform="translate(-130.832 0)"/>
    <path id="Path_22" data-name="Path 22" class="cls-2" d="M146.417,149.6a.8.8,0,0,0-1.04.2l-3.623,4.985-1.732-1.444a.816.816,0,0,0-1.064.036.628.628,0,0,0,.041.954l2.394,1.994.027.015.057.052.1.036.125.046.125.018.179,0,.074-.015.209-.079.034-.021.128-.085.061-.091,0,0,4.113-5.653A.638.638,0,0,0,146.417,149.6Z" transform="translate(45.242 -47.593)"/>
  </g>
</svg>
