<svg xmlns="http://www.w3.org/2000/svg" viewBox="6103 1249 40 40">
  <defs>
    <style>
      .cls-1 {
        fill: rgb(240, 82, 30);
      }
    </style>
  </defs>
  <g id="twitter_share" transform="translate(7925.8 1635.5)">
    <path id="Path_1002" data-name="Path 1002" class="cls-1" d="M-1783.467-380.767a8.64,8.64,0,0,0-5.067-5.067c-2.133-.667-4.2-.667-8.2-.667h-12.133c-4,0-6,0-8.2.667a8.64,8.64,0,0,0-5.067,5.067c-.667,2.133-.667,4.2-.667,8.2v12.133c0,4,0,6,.667,8.2a8.64,8.64,0,0,0,5.067,5.067c2.133.667,4.2.667,8.2.667h12.133c4,0,6,0,8.2-.667a8.64,8.64,0,0,0,5.067-5.067c.667-2.133.667-4.2.667-8.2v-12.133C-1782.8-376.567-1782.8-378.567-1783.467-380.767Zm-8.933,8.933v.667a15.208,15.208,0,0,1-15.333,15.333,15.2,15.2,0,0,1-8.267-2.4,8.069,8.069,0,0,0,1.267.067,10.87,10.87,0,0,0,6.667-2.267,5.389,5.389,0,0,1-5-3.733,5.041,5.041,0,0,0,1,.067,4.738,4.738,0,0,0,1.4-.2,5.367,5.367,0,0,1-4.333-5.267v-.067a5.043,5.043,0,0,0,2.467.667,5.267,5.267,0,0,1-2.4-4.467,5.406,5.406,0,0,1,.733-2.733,15.112,15.112,0,0,0,11.067,5.6,7.349,7.349,0,0,1-.133-1.2,5.378,5.378,0,0,1,5.4-5.4,5.6,5.6,0,0,1,3.933,1.667,10.065,10.065,0,0,0,3.4-1.333,5.549,5.549,0,0,1-2.333,3,9.548,9.548,0,0,0,3.067-.867A8.872,8.872,0,0,1-1792.4-371.833Z"/>
  </g>
</svg>
