<svg xmlns="http://www.w3.org/2000/svg" viewBox="6028 1249 40 40">
  <defs>
    <style>
      .cls-1 {
        fill: #34af23;
      }
    </style>
  </defs>
  <g id="whatsapp" transform="translate(7850.8 1635.5)">
    <path id="Path_1000" data-name="Path 1000" class="cls-1" d="M-1797.733-373a10.641,10.641,0,0,0-10.667,10.6,10.058,10.058,0,0,0,2.067,6.2l-1.333,3.933,4.133-1.267a10.459,10.459,0,0,0,5.867,1.733A10.641,10.641,0,0,0-1787-362.4,10.742,10.742,0,0,0-1797.733-373Zm6.2,15a3.162,3.162,0,0,1-2.133,1.467c-.6.067-.6.467-3.733-.8a12.641,12.641,0,0,1-5.333-4.667,6.122,6.122,0,0,1-1.267-3.2,3.629,3.629,0,0,1,1.067-2.6,1.017,1.017,0,0,1,.8-.4h.6c.2,0,.467-.133.667.533.267.6.867,2.133.933,2.267a.508.508,0,0,1,0,.533,2.338,2.338,0,0,1-.333.533,3.809,3.809,0,0,1-.467.533c-.133.133-.333.333-.133.6a8.76,8.76,0,0,0,1.733,2.133,7.631,7.631,0,0,0,2.533,1.533c.333.133.467.133.667-.067s.8-.933,1-1.2c.2-.333.4-.267.667-.133s1.8.867,2.133,1a1.141,1.141,0,0,1,.6.4C-1791.267-359.333-1791.267-358.733-1791.533-358Z" transform="translate(-4.8 -4.5)"/>
    <path id="Path_1001" data-name="Path 1001" class="cls-1" d="M-1783.467-380.767a8.64,8.64,0,0,0-5.067-5.067c-2.133-.667-4.2-.667-8.2-.667h-12.133c-4,0-6,0-8.2.667a8.64,8.64,0,0,0-5.067,5.067c-.667,2.133-.667,4.2-.667,8.2v12.133c0,4,0,6,.667,8.2a8.64,8.64,0,0,0,5.067,5.067c2.133.667,4.2.667,8.2.667h12.133c4,0,6,0,8.2-.667a8.64,8.64,0,0,0,5.067-5.067c.667-2.133.667-4.2.667-8.2v-12.133C-1782.8-376.567-1782.8-378.567-1783.467-380.767Zm-19.067,26.467a12.73,12.73,0,0,1-6.133-1.6l-7.067,2.2,2.267-6.8a12.628,12.628,0,0,1-1.8-6.533,12.662,12.662,0,0,1,12.733-12.6,12.7,12.7,0,0,1,12.733,12.6A12.732,12.732,0,0,1-1802.533-354.3Z"/>
  </g>
</svg>
