<svg xmlns="http://www.w3.org/2000/svg" viewBox="-83 659 13.8 18">
  <defs>
    <style>
      .cls-1 {
        fill: #333;
      }
    </style>
  </defs>
  <path id="user" class="cls-1" d="M19.3,12.867l-2.866-1.433A.789.789,0,0,1,16,10.724V9.71c.069-.084.141-.18.216-.285a6.866,6.866,0,0,0,.886-1.74A1.19,1.19,0,0,0,17.8,6.6V5.4a1.2,1.2,0,0,0-.3-.787v-1.6a2.689,2.689,0,0,0-.628-1.958A3.776,3.776,0,0,0,13.9,0a3.777,3.777,0,0,0-2.972,1.059A2.69,2.69,0,0,0,10.3,3.017v1.6A1.2,1.2,0,0,0,10,5.4V6.6a1.193,1.193,0,0,0,.449.933A6.3,6.3,0,0,0,11.5,9.7V10.7a.793.793,0,0,1-.413.7l-2.676,1.46A2.705,2.705,0,0,0,7,15.229V16.2c0,1.424,4.514,1.8,6.9,1.8s6.9-.376,6.9-1.8v-.913A2.692,2.692,0,0,0,19.3,12.867Z" transform="translate(-90 659)"/>
</svg>
