<svg xmlns="http://www.w3.org/2000/svg" viewBox="790.193 4182 12 12">
  <defs>
    <style>
      .cls-1 {
        fill: #f8f8f8;
      }
    </style>
  </defs>
  <g id="arrow-pointing-to-left" transform="translate(777.909 4182)">
    <path id="Path_775" data-name="Path 775" class="cls-1" d="M24.019,4.81a.892.892,0,0,0-.689-.289H17.591L19.98,2.264a.948.948,0,0,0,0-1.4l-.611-.57a1.076,1.076,0,0,0-1.476,0L12.586,5.3a.959.959,0,0,0-.3.7.918.918,0,0,0,.3.693l5.307,5.022a1.077,1.077,0,0,0,.742.285,1.029,1.029,0,0,0,.734-.285l.611-.585a.931.931,0,0,0,0-1.386L17.591,7.479H23.33a.892.892,0,0,0,.689-.289,1,1,0,0,0,.265-.7V5.507A1,1,0,0,0,24.019,4.81Z" transform="translate(0)"/>
  </g>
</svg>
