<svg xmlns="http://www.w3.org/2000/svg" viewBox="-1493 1034 32 32">
  <defs>
    <style>
      .cls-1 {
        fill: #2f76d1;
      }
    </style>
  </defs>
  <path id="phone-speech" class="cls-1" d="M46.488,45.86A7.623,7.623,0,0,1,43.2,42.135L43.362,42a16.015,16.015,0,1,0-3.891,3.2l.033-.027a9.11,9.11,0,0,0,6.8,1.856A.621.621,0,0,0,46.488,45.86Zm-9.836-7.615c-.352.359-.725.692-1.057,1.064a2.083,2.083,0,0,1-1.789.678,7.367,7.367,0,0,1-2.846-.831,15.472,15.472,0,0,1-5.141-4.024,14.2,14.2,0,0,1-2.507-4.177,5.478,5.478,0,0,1-.419-2.328,1.916,1.916,0,0,1,.592-1.277c.4-.379.771-.771,1.164-1.157a1.106,1.106,0,0,1,1.663,0c.319.313.625.625.938.938s.612.605.911.911a1.108,1.108,0,0,1,0,1.7c-.379.386-.758.771-1.151,1.144a.238.238,0,0,0-.06.306,6.713,6.713,0,0,0,1.037,1.663,11.828,11.828,0,0,0,2.906,2.64c.239.153.505.259.758.4a.228.228,0,0,0,.319-.06c.379-.392.771-.778,1.157-1.164a1.094,1.094,0,0,1,1.656,0c.625.619,1.244,1.237,1.862,1.862A1.119,1.119,0,0,1,36.652,38.245Zm-5.9-10.335.2-1.423a6.363,6.363,0,0,1,5.38,5.214l-1.417.246a4.932,4.932,0,0,0-4.163-4.037ZM38.647,31.7a9.107,9.107,0,0,0-7.708-7.475l.2-1.423a10.557,10.557,0,0,1,8.925,8.652Z" transform="translate(-1508.375 1018.6)"/>
</svg>
