<svg xmlns="http://www.w3.org/2000/svg" viewBox="-771 1932 15.272 12">
  <defs>
    <style>
      .cls-1 {
        fill: #333;
      }
    </style>
  </defs>
  <g id="comments" transform="translate(-771 1877.199)">
    <path id="Path_1565" data-name="Path 1565" class="cls-1" d="M9.012,62.944A5.41,5.41,0,0,0,11.2,61.355a3.395,3.395,0,0,0,0-4.38,5.412,5.412,0,0,0-2.186-1.589A7.676,7.676,0,0,0,6,54.8a7.676,7.676,0,0,0-3.013.584A5.412,5.412,0,0,0,.8,56.974a3.441,3.441,0,0,0-.8,2.19,3.348,3.348,0,0,0,.605,1.909,4.979,4.979,0,0,0,1.662,1.508q-.085.2-.175.375a2.16,2.16,0,0,1-.213.328l-.192.247q-.068.089-.222.251T1.27,64c0-.006-.011.007-.034.038s-.036.045-.038.043-.014.011-.034.042l-.03.047-.021.042a.179.179,0,0,0-.017.051.333.333,0,0,0,0,.055.173.173,0,0,0,.009.055.283.283,0,0,0,.1.179.266.266,0,0,0,.175.068H1.4a7.145,7.145,0,0,0,.733-.136A7.169,7.169,0,0,0,4.5,63.391a8.558,8.558,0,0,0,1.5.136A7.67,7.67,0,0,0,9.012,62.944Zm-4.768-.711-.375.264q-.239.162-.528.333l.3-.716-.827-.477a3.919,3.919,0,0,1-1.27-1.125,2.322,2.322,0,0,1-.452-1.347,2.422,2.422,0,0,1,.669-1.628,4.567,4.567,0,0,1,1.8-1.2A6.635,6.635,0,0,1,6,55.892a6.635,6.635,0,0,1,2.437.443,4.569,4.569,0,0,1,1.8,1.2,2.315,2.315,0,0,1,0,3.256,4.566,4.566,0,0,1-1.8,1.2A6.634,6.634,0,0,1,6,62.437a7.38,7.38,0,0,1-1.3-.119Z"/>
    <path id="Path_1566" data-name="Path 1566" class="cls-1" d="M185.283,162.963a3.326,3.326,0,0,0-.034-3.873,5.052,5.052,0,0,0-1.739-1.517,4.386,4.386,0,0,1-.375,3.46,5.7,5.7,0,0,1-1.636,1.807,7.546,7.546,0,0,1-2.25,1.1,9,9,0,0,1-2.633.383q-.256,0-.75-.034a7.161,7.161,0,0,0,4.022,1.125,8.562,8.562,0,0,0,1.5-.136,6.806,6.806,0,0,0,3.1,1.227.257.257,0,0,0,.188-.06.316.316,0,0,0,.111-.187c0-.034,0-.053.009-.056s.007-.021,0-.055l-.017-.051-.021-.043a.411.411,0,0,0-.03-.047.374.374,0,0,0-.034-.043l-.038-.042-.034-.038q-.043-.051-.2-.213t-.222-.251q-.068-.089-.192-.247a2.155,2.155,0,0,1-.213-.328q-.089-.17-.175-.375A5,5,0,0,0,185.283,162.963Z" transform="translate(-170.616 -99.704)"/>
  </g>
</svg>
