<?xml version="1.0" encoding="utf-8"?>
<!-- Generator: Adobe Illustrator 21.0.2, SVG Export Plug-In . SVG Version: 6.00 Build 0)  -->
<svg version="1.1" id="Layer_1" xmlns="http://www.w3.org/2000/svg" xmlns:xlink="http://www.w3.org/1999/xlink" x="0px" y="0px"
	 viewBox="0 0 64 64" style="enable-background:new 0 0 64 64;" xml:space="preserve">
<style type="text/css">
	.st0{fill:#F8F8F8;}
</style>
<path class="st0" d="M32,0C14.3,0,0,14.3,0,32c0,17.7,14.3,32,32,32s32-14.3,32-32C64,14.3,49.7,0,32,0z M45.6,22.7L31.7,43.9l0,0
	l-0.2,0.3L31,44.6l-0.1,0.1L30.2,45L30,45l-0.6,0L29,45l-0.4-0.2l-0.4-0.1L28,44.5l-0.1-0.1l-8.1-7.5c0,0,0,0,0,0
	c-1-1-1.1-2.6-0.1-3.6s2.6-1.1,3.6-0.1l5.8,5.4l12.2-18.7c0.8-1.2,2.3-1.5,3.5-0.7C46,20,46.3,21.5,45.6,22.7z"/>
</svg>
