<?xml version="1.0" encoding="utf-8"?>
<!-- Generator: Adobe Illustrator 21.0.2, SVG Export Plug-In . SVG Version: 6.00 Build 0)  -->
<svg version="1.1" id="Layer_1" xmlns="http://www.w3.org/2000/svg" xmlns:xlink="http://www.w3.org/1999/xlink" x="0px" y="0px"
	 viewBox="0 0 64 64" style="enable-background:new 0 0 64 64;" xml:space="preserve">
<style type="text/css">
	.st0{fill:#F8F8F8;}
</style>
<path class="st0" d="M32,0C14.3,0,0,14.3,0,32c0,17.7,14.3,32,32,32s32-14.3,32-32C64,14.3,49.7,0,32,0z M45.2,44.1
	c-1.1,1.1-2.9,1.1-4,0l-8.6-8.6l-8.6,8.6c-1.1,1.1-2.9,1.1-4,0c-1.1-1.1-1.1-2.9,0-4l8.6-8.6l-8.6-8.6c-1.1-1.1-1.1-2.9,0-4
	c1.1-1.1,2.9-1.1,4,0l8.6,8.6l8.6-8.6c1.1-1.1,2.9-1.1,4,0c1.1,1.1,1.1,2.9,0,4l-8.6,8.6l8.6,8.6C46.3,41.2,46.3,43,45.2,44.1z"/>
</svg>
