<svg xmlns="http://www.w3.org/2000/svg" viewBox="550.864 1163.497 16.296 11.503">
  <defs>
    <style>
      .cls-1 {
        fill: #aaa;
      }
    </style>
  </defs>
  <g id="direct_debit" transform="translate(538.464 1154.197)">
    <path id="Path_262" data-name="Path 262" class="cls-1" d="M12.4,14.74c.023-.146.05-.289.065-.435a4.174,4.174,0,0,1,.339-1.2,4.986,4.986,0,0,1,1.282-1.735,7.254,7.254,0,0,1,2.257-1.327,10.221,10.221,0,0,1,1.88-.518A11.744,11.744,0,0,1,20.281,9.3h.706v4.12a.949.949,0,0,1-.118.005c-.309-.008-.618-.028-.928-.018a10.131,10.131,0,0,0-1.106.075c-.508.07-1.013.163-1.516.274a7.006,7.006,0,0,0-1.667.578,8.661,8.661,0,0,0-.877.5,2.18,2.18,0,0,0-.867.988,1.367,1.367,0,0,0-.023.943,3.209,3.209,0,0,0,.978,1.435,6.563,6.563,0,0,0,1.405.968,7.2,7.2,0,0,0,1.491.593q.63.166,1.272.3a4.771,4.771,0,0,0,.571.06c.219.018.44.04.659.045a3.958,3.958,0,0,0,.6-.025c.287-.035.576-.078.857-.138a5.016,5.016,0,0,0,3.622-3.074,5.189,5.189,0,0,0,.347-1.564,7.074,7.074,0,0,0-.151-2.109,4.609,4.609,0,0,0-2.245-3.027,6.384,6.384,0,0,0-1.878-.719c-.123-.028-.073-.116-.08-.214.214.015.417.015.616.045.47.075.943.146,1.408.251a8.332,8.332,0,0,1,1.951.714,7.3,7.3,0,0,1,1.4.913A6.172,6.172,0,0,1,27.946,12.6a4.579,4.579,0,0,1,.689,1.722,4.328,4.328,0,0,1-.168,2.117,4.881,4.881,0,0,1-.975,1.684A6.681,6.681,0,0,1,25.8,19.5a8.83,8.83,0,0,1-1.78.779,10.527,10.527,0,0,1-1.88.42c-.425.053-.855.073-1.282.093a6.681,6.681,0,0,1-.925,0c-.52-.048-1.041-.1-1.556-.194a9.461,9.461,0,0,1-2.32-.742,8.065,8.065,0,0,1-1.79-1.139,5.591,5.591,0,0,1-1.445-1.848,4.019,4.019,0,0,1-.377-1.287c-.01-.088-.033-.173-.048-.259Z"/>
    <path id="Path_263" data-name="Path 263" class="cls-1" d="M214.9,182.682v6.036c-.075-.005-.153-.005-.229-.015a4.771,4.771,0,0,1-2.215-.877,2.729,2.729,0,0,1-.98-1.257,2.338,2.338,0,0,1-.023-1.544,3.247,3.247,0,0,1,1.943-2.016,4.236,4.236,0,0,1,1.461-.334A.1.1,0,0,1,214.9,182.682Z" transform="translate(-193.931 -169.015)"/>
  </g>
</svg>
