<svg xmlns="http://www.w3.org/2000/svg" viewBox="1145 441 21.778 14">
  <defs>
    <style>
      .cls-1 {
        fill: #333;
      }
    </style>
  </defs>
  <g id="eye-open" transform="translate(1145 349.635)">
    <path id="Path_273" data-name="Path 273" class="cls-1" d="M21.535,97.527a12.98,12.98,0,0,0-4.576-4.472,11.751,11.751,0,0,0-12.141,0A12.977,12.977,0,0,0,.243,97.527a1.569,1.569,0,0,0,0,1.677,12.974,12.974,0,0,0,4.576,4.472,11.771,11.771,0,0,0,12.141.006A12.893,12.893,0,0,0,21.535,99.2a1.569,1.569,0,0,0,0-1.677ZM8.282,94.2a3.556,3.556,0,0,1,2.607-1.088.583.583,0,1,1,0,1.167A2.531,2.531,0,0,0,8.361,96.81a.583.583,0,1,1-1.167,0A3.557,3.557,0,0,1,8.282,94.2Zm7.888,8.131a10.181,10.181,0,0,1-10.561,0,12.544,12.544,0,0,1-4.053-3.968,11.944,11.944,0,0,1,4.63-4.29,5.311,5.311,0,0,0-.741,2.734,5.244,5.244,0,0,0,1.6,3.846,5.243,5.243,0,0,0,3.846,1.6,5.244,5.244,0,0,0,3.846-1.6,5.242,5.242,0,0,0,1.6-3.846,5.31,5.31,0,0,0-.741-2.734,11.946,11.946,0,0,1,4.63,4.29A12.541,12.541,0,0,1,16.17,102.333Z"/>
  </g>
</svg>
