<svg xmlns="http://www.w3.org/2000/svg" viewBox="-1199 439 5.592 12">
  <defs>
    <style>
      .cls-1 {
        fill: #3b599c;
      }
    </style>
  </defs>
  <g id="facebook-logo" transform="translate(-1324.619 439)">
    <path id="Path_37" data-name="Path 37" class="cls-1" d="M129.34,3.932V2.9a2.279,2.279,0,0,1,.022-.36.7.7,0,0,1,.1-.251.4.4,0,0,1,.248-.171,1.763,1.763,0,0,1,.455-.047H131.2V0h-1.653a2.691,2.691,0,0,0-2.061.681,2.868,2.868,0,0,0-.626,2.006V3.932h-1.238V6h1.238v6h2.483V6h1.653l.218-2.068Z" transform="translate(0)"/>
  </g>
</svg>
