<svg xmlns="http://www.w3.org/2000/svg" viewBox="-151 662 18 11.923">
  <defs>
    <style>
      .cls-1 {
        fill: #333;
      }
    </style>
  </defs>
  <g id="gamepad-controller" transform="translate(-151 652.948)">
    <path id="Path_67" data-name="Path 67" class="cls-1" d="M16.39,11.161c-2.377-3.906-5.959-1.189-5.959-1.189a1.856,1.856,0,0,1-.952.321H8.52a1.844,1.844,0,0,1-.951-.32S3.987,7.256,1.61,11.162A12.052,12.052,0,0,0,.19,19.319c.168,1.041.721,1.736,1.765,1.649s3.3-2.8,3.3-2.8a1.288,1.288,0,0,1,.868-.407h5.751a1.286,1.286,0,0,1,.868.407s2.26,2.717,3.3,2.8,1.6-.608,1.764-1.649A12.049,12.049,0,0,0,16.39,11.161ZM6.838,14.34H5.605v1.189a1.149,1.149,0,0,1-.665.194.8.8,0,0,1-.586-.218V14.34H3.189A.937.937,0,0,1,3,13.8a1.242,1.242,0,0,1,.161-.71H4.4V11.856a1.341,1.341,0,0,1,.619-.126,1.631,1.631,0,0,1,.633.149l-.005,1.21H6.81a1.16,1.16,0,0,1,.22.577A1.457,1.457,0,0,1,6.838,14.34Zm5.657,1.355a.976.976,0,1,1,.976-.976A.975.975,0,0,1,12.495,15.695Zm0-2.686a.976.976,0,1,1,.976-.976A.974.974,0,0,1,12.495,13.009Zm2.431,1.442a.976.976,0,1,1,.976-.976A.974.974,0,0,1,14.926,14.451Z" transform="translate(0 0)"/>
  </g>
</svg>
