<svg xmlns="http://www.w3.org/2000/svg" viewBox="-771 1896 14.259 12">
  <defs>
    <style>
      .cls-1 {
        fill: #333;
      }
    </style>
  </defs>
  <path id="Path_1564" data-name="Path 1564" class="cls-1" d="M8.6,8.408a2.591,2.591,0,0,1,1.206,1.925A2.09,2.09,0,1,0,8.6,8.408ZM7.235,12.69A2.091,2.091,0,1,0,5.143,10.6,2.091,2.091,0,0,0,7.235,12.69Zm.887.143H6.347A2.681,2.681,0,0,0,3.67,15.51v2.17l.006.034.149.047a12.189,12.189,0,0,0,3.641.587,7.474,7.474,0,0,0,3.179-.6l.14-.071H10.8V15.51A2.68,2.68,0,0,0,8.122,12.832Zm3.46-2.159H9.821a2.577,2.577,0,0,1-.8,1.8A3.182,3.182,0,0,1,11.3,15.513v.669a7.206,7.206,0,0,0,2.807-.59l.14-.071h.015V13.351A2.681,2.681,0,0,0,11.582,10.673Zm-8.017-.142a2.077,2.077,0,0,0,1.112-.323A2.588,2.588,0,0,1,5.65,8.557c0-.039.006-.078.006-.117a2.091,2.091,0,1,0-2.091,2.091Zm1.878,1.938a2.579,2.579,0,0,1-.795-1.785c-.065,0-.13-.01-.2-.01H2.678A2.681,2.681,0,0,0,0,13.351v2.171l.006.033.149.047a12.554,12.554,0,0,0,3.015.567v-.655A3.182,3.182,0,0,1,5.443,12.468Z" transform="translate(-771 1889.652)"/>
</svg>
