<svg width="48" height="48" xmlns="http://www.w3.org/2000/svg">

 <g>
  <title>background</title>
  <rect fill="none" id="canvas_background" height="402" width="582" y="-1" x="-1"/>
 </g>
 <g>
  <title>Layer 1</title>
  <path id="svg_1" fill="none" d="m0,0l48,0l0,48l-48,0l0,-48z"/>
  <path fill="#ffffff" id="svg_2" d="m38,39l-28,0l0,-28l14,0l0,-4l-14,0c-2.21,0 -4,1.79 -4,4l0,28c0,2.21 1.79,4 4,4l28,0c2.21,0 4,-1.79 4,-4l0,-14l-4,0l0,14zm-10,-32l0,4l7.17,0l-19.66,19.66l2.83,2.83l19.66,-19.66l0,7.17l4,0l0,-14l-14,0z"/>
 </g>
</svg>