<svg xmlns="http://www.w3.org/2000/svg" viewBox="-617.943 252.012 8.164 9.978">
  <defs>
    <style>
      .cls-1 {
        fill: #00a651;
      }
    </style>
  </defs>
  <path id="Path_54" data-name="Path 54" class="cls-1" d="M44.513,4.734a.656.656,0,0,0-.482-.2H43.8V3.175A3.055,3.055,0,0,0,42.869.935a3.148,3.148,0,0,0-4.479,0,3.055,3.055,0,0,0-.935,2.239V4.535h-.227a.677.677,0,0,0-.68.68V9.3a.677.677,0,0,0,.68.68h6.8a.677.677,0,0,0,.68-.68V5.216A.656.656,0,0,0,44.513,4.734Zm-2.069-.2H38.816V3.175a1.748,1.748,0,0,1,.532-1.283,1.814,1.814,0,0,1,2.565,0,1.748,1.748,0,0,1,.531,1.283Z" transform="translate(-654.491 252.012)"/>
</svg>
