<svg xmlns="http://www.w3.org/2000/svg" viewBox="1180 1293 32 35.478">
  <defs>
    <style>
      .cls-1 {
        fill: #1f4c87;
      }
    </style>
  </defs>
  <g id="logo" transform="translate(1122.1 1257.9)">
    <path id="Path_417" data-name="Path 417" class="cls-1" d="M73.9,35.1a15.961,15.961,0,0,0-.313,31.92c.064,0,.129-.008.2-.008a5.475,5.475,0,0,1-2.827,3.566,17.969,17.969,0,0,0,6.8-1.9,23.566,23.566,0,0,0,5.992-4.048,20.685,20.685,0,0,0,4.137-5.3A16.3,16.3,0,0,0,89.9,51.1,16,16,0,0,0,73.9,35.1Zm5.719,19.157c-.884-2.482.538-4.137,1.968-7.526s-2.884-3.88-3.108-1.566-1.4,5.422-4.506,5.5-4.249-3.566-4.506-5.5-3.277-2-3.277.056.514,1.968,2,6.1-2.257,4.731-2.257,4.731c-2.514.458-4.675-1.1-4.723-5.116-.04-4.032,3.165-12.8,12.538-12.8s12.618,7.309,12.787,13.43S80.5,56.739,79.619,54.257Z"/>
    <circle id="Ellipse_61" data-name="Ellipse 61" class="cls-1" cx="2.482" cy="2.482" r="2.482" transform="translate(62.607 50.008)"/>
    <circle id="Ellipse_62" data-name="Ellipse 62" class="cls-1" cx="2.482" cy="2.482" r="2.482" transform="translate(80.229 50.064)"/>
    <path id="Path_418" data-name="Path 418" class="cls-1" d="M228.126,142.563a2.763,2.763,0,1,1-2.763-2.763A2.763,2.763,0,0,1,228.126,142.563Z" transform="translate(-151.471 -96.29)"/>
    <path id="Path_419" data-name="Path 419" class="cls-1" d="M190.708,108.2l.835.659,1.028-.313-.369,1,.618.875-1.068-.04-.643.859-.289-1.036-1.02-.337.892-.594Z" transform="translate(-121.306 -67.229)"/>
    <path id="Path_420" data-name="Path 420" class="cls-1" d="M287.512,108.2l-.835.659-1.028-.313.369,1-.618.875,1.068-.04.643.859.289-1.036,1.02-.337-.892-.594Z" transform="translate(-209.227 -67.229)"/>
    <path id="Path_421" data-name="Path 421" class="cls-1" d="M232.58,77.2l.643,1.309,1.438.209-1.036,1.012.241,1.438-1.285-.675-1.285.675.241-1.438L230.5,78.718l1.438-.209Z" transform="translate(-158.737 -38.718)"/>
  </g>
</svg>
