<svg xmlns="http://www.w3.org/2000/svg" viewBox="1278.658 1945 13.376 12.979">
  <defs>
    <style>
      .cls-1 {
        fill: #B7B7B7
      }

      .cls-2 {
        fill: #B7B7B7;
        stroke: #fff
      }
    </style>
  </defs>
  <g id="cash" transform="translate(1263 2062.621)">
    <path id="Path_323" data-name="Path 323" class="cls-1" d="M172.163,22.379c-2.167,0-3.924.8-3.924,1.78v.386c0,.983,1.757,1.78,3.924,1.78s3.924-.8,3.924-1.78v-.386C176.087,23.176,174.33,22.379,172.163,22.379Z" transform="translate(-152.581 -140)"/>
    <path id="Path_324" data-name="Path 324" class="cls-1" d="M172.163,124.959c-1.892,0-3.47-.607-3.841-1.415a.868.868,0,0,0-.083.364v.386c0,.983,1.757,1.78,3.924,1.78s3.924-.8,3.924-1.78v-.386a.868.868,0,0,0-.083-.364C175.633,124.352,174.054,124.959,172.163,124.959Z" transform="translate(-152.581 -237.763)"/>
    <path id="Path_325" data-name="Path 325" class="cls-1" d="M172.163,184.043c-1.892,0-3.47-.607-3.841-1.415a.868.868,0,0,0-.083.364v.386c0,.983,1.757,1.78,3.924,1.78s3.924-.8,3.924-1.78v-.386a.868.868,0,0,0-.083-.364C175.633,183.436,174.054,184.043,172.163,184.043Z" transform="translate(-152.581 -294.86)"/>
    <path id="Path_326" data-name="Path 326" class="cls-1" d="M172.163,246.316c-1.892,0-3.47-.607-3.841-1.415a.868.868,0,0,0-.083.364v.386c0,.983,1.757,1.78,3.924,1.78s3.924-.8,3.924-1.78v-.386A.868.868,0,0,0,176,244.9C175.633,245.709,174.054,246.316,172.163,246.316Z" transform="translate(-152.581 -355.039)"/>
    <path id="Path_327" data-name="Path 327" class="cls-1" d="M172.163,305.4c-1.892,0-3.47-.607-3.841-1.415a.868.868,0,0,0-.083.364v.386c0,.983,1.757,1.78,3.924,1.78s3.924-.8,3.924-1.78v-.386a.868.868,0,0,0-.083-.364C175.633,304.792,174.054,305.4,172.163,305.4Z" transform="translate(-152.581 -412.135)"/>
    <path id="Path_2213" data-name="Path 2213" class="cls-2" d="M8.534,101.267a4.267,4.267,0,1,0-4.267,4.267A4.267,4.267,0,0,0,8.534,101.267Z" transform="translate(20 -210.676)"/>
  </g>
</svg>
