<?xml version="1.0" encoding="utf-8"?>
<!-- Generator: Adobe Illustrator 19.0.0, SVG Export Plug-In . SVG Version: 6.00 Build 0)  -->
<svg version="1.1" id="Capa_1" xmlns="http://www.w3.org/2000/svg" xmlns:xlink="http://www.w3.org/1999/xlink" x="0px" y="0px"
	 viewBox="-69 380.4 292 408" style="enable-background:new -69 380.4 292 408;" xml:space="preserve">
<style type="text/css">
	.st0{fill:black;}
</style>
<g>
	<g id="more-vert">
		<path class="st0" d="M77,482.4c28.1,0,51-22.9,51-51c0-28-22.9-51-51-51s-51,23-51,51C26,459.5,48.9,482.4,77,482.4z M77,533.4
			c-28.1,0-51,22.9-51,51c0,28,22.9,51,51,51s51-23,51-51C128,556.3,105.1,533.4,77,533.4z M77,686.4c-28.1,0-51,23-51,51
			s22.9,51,51,51s51-23,51-51S105.1,686.4,77,686.4z"/>
	</g>
</g>
</svg>
