<svg xmlns="http://www.w3.org/2000/svg" viewBox="-19 26 10 11.065">
  <defs>
    <style>
      .cls-1 {
        fill: #f8f8f8;
      }
    </style>
  </defs>
  <g id="notification-bell" transform="translate(-23.258 26)">
    <g id="Group_17" data-name="Group 17" transform="translate(4.258 0)">
      <path id="Path_74" data-name="Path 74" class="cls-1" d="M12.165,4.6C10.739,1.536,10,.371,7.67.419c-.829.017-.63-.6-1.263-.366s-.09.578-.736,1.108C3.857,2.65,4.024,4.027,4.866,7.311,5.22,8.693,4.011,8.761,4.49,10.1c.349.977,2.924,1.387,5.641.379s4.432-3.009,4.083-3.986C13.734,5.154,12.765,5.894,12.165,4.6ZM9.836,9.655c-2.426.9-4.42.371-4.5.135C5.186,9.384,6.114,8.03,8.888,7s4.322-.648,4.484-.194C13.468,7.074,12.262,8.754,9.836,9.655ZM9.056,7.47A9.09,9.09,0,0,0,6.335,8.964a1.918,1.918,0,0,0,1.9.176c.955-.354,1.541-1.167,1.309-1.816,0-.008-.007-.015-.01-.023Q9.3,7.379,9.056,7.47Z" transform="translate(-4.258 0)"/>
    </g>
  </g>
</svg>
