<svg xmlns="http://www.w3.org/2000/svg" viewBox="285 4682 18.005 18">
  <defs>
    <style>
      .cls-1 {
        fill: #333;
      }
    </style>
  </defs>
  <g id="offers_ico" transform="translate(285.001 4681.995)">
    <path id="Path_2216" data-name="Path 2216" class="cls-1" d="M17.384,9.883,8.111.62A2.123,2.123,0,0,0,6.561.006L1.69.131A1.618,1.618,0,0,0,.113,1.709L0,6.574A2.106,2.106,0,0,0,.623,8.116L9.9,17.379a2.111,2.111,0,0,0,2.986.016l4.5-4.508A2.131,2.131,0,0,0,17.384,9.883ZM3.31,5.674a1.659,1.659,0,1,1,2.346,0A1.659,1.659,0,0,1,3.31,5.674ZM6.441,8.509a1.852,1.852,0,0,1-.451-.688l.466-.286a1.629,1.629,0,0,0,.382.626c.21.207.406.23.537.1s.1-.293-.058-.62A.939.939,0,0,1,7.352,6.5a.931.931,0,0,1,1.365.145,1.751,1.751,0,0,1,.415.611l-.466.268a1.354,1.354,0,0,0-.328-.513c-.2-.2-.383-.2-.486-.095-.128.129-.07.3.094.654.226.484.21.836-.07,1.121C7.541,9.026,7,9.057,6.441,8.509Zm2.21,2.122.356-.672-.579-.572-.655.377L7.3,9.3,9.91,7.885l.6.592L9.142,11.116Zm.613.6,1.994-2.02.459.453L10.1,11.3l.8.793-.379.384Zm4.254.95-.788-.778-.415.42.744.734-.367.372-.743-.734-.473.479.83.82-.369.375L10.647,12.6l1.994-2.02,1.246,1.231Z" transform="translate(0 0)"/>
    <path id="Path_2217" data-name="Path 2217" class="cls-1" d="M23.068,22.807l.446.441.574-1.049C23.941,22.288,23.068,22.807,23.068,22.807Z" transform="translate(-14.236 -13.695)"/>
  </g>
</svg>
