<svg xmlns="http://www.w3.org/2000/svg" viewBox="1384 1945 10.278 12.088">
  <defs>
    <style>
      .cls-1 {
        fill: #B7B7B7;
      }
    </style>
  </defs>
  <g id="other_prizes" transform="translate(1381.629 1945.002)">
    <path id="Path_2214" data-name="Path 2214" class="cls-1" d="M9.835,3.564H9.8a3.7,3.7,0,1,0,0,7.4h.014a.1.1,0,0,0,.017,0,3.7,3.7,0,1,0,0-7.4Z" transform="translate(-2.31 -2.204)"/>
    <path id="Path_2215" data-name="Path 2215" class="cls-1" d="M11.131,8.01A.419.419,0,0,1,11.3,8c.273.042.395-.126.271-.372a.306.306,0,0,1,.275-.477c.276-.016.36-.205.188-.421a.306.306,0,0,1,.169-.524c.267-.072.31-.276.1-.45a.306.306,0,0,1,.057-.549c.246-.126.246-.332,0-.459A.306.306,0,0,1,12.3,4.2c.214-.175.171-.377-.1-.45a.306.306,0,0,1-.169-.524c.172-.215.088-.4-.188-.42a.306.306,0,0,1-.275-.477c.124-.247,0-.415-.271-.372a.306.306,0,0,1-.368-.409c.07-.267-.084-.406-.342-.308a.305.305,0,0,1-.446-.324c.013-.276-.166-.38-.4-.23a.305.305,0,0,1-.5-.224C9.2.19,9,.126,8.808.321A.306.306,0,0,1,8.269.206c-.1-.257-.306-.278-.457-.048a.321.321,0,0,1-.3.165h0a.32.32,0,0,1-.3-.165c-.151-.23-.357-.209-.457.048a.306.306,0,0,1-.539.114C6.016.126,5.82.19,5.775.463a.306.306,0,0,1-.5.224c-.233-.149-.412-.046-.4.23a.305.305,0,0,1-.446.323c-.258-.1-.412.041-.342.308a.305.305,0,0,1-.368.409c-.273-.042-.395.125-.271.372a.306.306,0,0,1-.275.477c-.276.016-.36.2-.188.42a.306.306,0,0,1-.169.524c-.267.072-.309.275-.1.45a.306.306,0,0,1-.057.548c-.246.127-.246.333,0,.459a.306.306,0,0,1,.057.549c-.214.174-.171.377.1.45a.306.306,0,0,1,.17.524c-.172.215-.088.4.188.421a.306.306,0,0,1,.275.477c-.125.245,0,.413.27.371a.4.4,0,0,1,.171.008L2.371,10.85h1.6l.814,1.235L6.321,9.559a.3.3,0,0,1,.43.193c.1.258.306.279.457.048a.321.321,0,0,1,.3-.165v0a.32.32,0,0,1,.3.165c.151.23.357.21.457-.048a.3.3,0,0,1,.43-.193l1.534,2.525.814-1.235h1.6ZM9.477,8.58l-.058.032a4.045,4.045,0,0,1-1.9.473l-.008,0H7.5a4.04,4.04,0,0,1-1.9-.473l-.058-.032A4.014,4.014,0,0,1,7.5,1.042l.008,0h.01A4.014,4.014,0,0,1,9.477,8.58Z" transform="translate(0 0)"/>
  </g>
</svg>
