<?xml version="1.0" encoding="utf-8"?>
<!-- Generator: Adobe Illustrator 19.0.0, SVG Export Plug-In . SVG Version: 6.00 Build 0)  -->
<svg version="1.1" id="Layer_1" xmlns="http://www.w3.org/2000/svg" xmlns:xlink="http://www.w3.org/1999/xlink" x="0px" y="0px"
	 viewBox="-325 578.4 12 12" style="enable-background:new -325 578.4 12 12;" xml:space="preserve">
<style type="text/css">
	.st0{fill:#FFFFFF;}
</style>
<g id="plus" transform="translate(-297 503)">
	<path id="Path_78" class="st0" d="M-22,75.4c-3.3,0-6,2.7-6,6s2.7,6,6,6s6-2.7,6-6S-18.7,75.4-22,75.4z M-22,86.3
		c-2.7,0-4.9-2.2-4.9-4.9s2.2-4.9,4.9-4.9s4.9,2.2,4.9,4.9S-19.3,86.3-22,86.3z M-19.7,80.7h-1.5v-1.5c0-0.2-0.2-0.4-0.4-0.4h-0.8
		c-0.2,0-0.4,0.2-0.4,0.4v1.5h-1.5c-0.2,0-0.4,0.2-0.4,0.4c0,0,0,0,0,0v0.8c0,0.2,0.2,0.4,0.4,0.4c0,0,0,0,0,0h1.5v1.5
		c0,0.2,0.2,0.4,0.4,0.4h0.8c0.2,0,0.4-0.2,0.4-0.4v-1.5h1.5c0.2,0,0.4-0.2,0.4-0.4c0,0,0,0,0,0V81C-19.4,80.8-19.5,80.6-19.7,80.7
		C-19.7,80.7-19.7,80.7-19.7,80.7z"/>
</g>
</svg>
