<svg xmlns="http://www.w3.org/2000/svg" viewBox="-297 503 12 12">
  <defs>
    <style>
      .cls-1 {
        fill: #2f76d1;
      }
    </style>
  </defs>
  <g id="plus" transform="translate(-297 503)">
    <path id="Path_78" data-name="Path 78" class="cls-1" d="M6,0a6,6,0,1,0,6,6A6,6,0,0,0,6,0ZM6,10.875A4.875,4.875,0,1,1,10.875,6,4.875,4.875,0,0,1,6,10.875ZM8.257,5.25H6.75V3.75a.375.375,0,0,0-.375-.375h-.75a.375.375,0,0,0-.375.375v1.5H3.75a.375.375,0,0,0-.376.375v.75a.375.375,0,0,0,.376.375h1.5v1.5a.375.375,0,0,0,.375.375h.75a.375.375,0,0,0,.375-.375V6.75H8.258a.375.375,0,0,0,.376-.375v-.75A.376.376,0,0,0,8.257,5.25Z"/>
  </g>
</svg>
