<svg xmlns="http://www.w3.org/2000/svg" viewBox="400 2738 14 10.207">
  <defs>
    <style>
      .cls-1 {
        fill: #2f76d1;
      }
    </style>
  </defs>
  <path id="rwp_icon" class="cls-1" d="M13.154,74.76a.61.61,0,0,1,0-.489l.848-1.7a.154.154,0,0,0-.15-.243H11.6a5.1,5.1,0,0,0-9.321,0H.206a.154.154,0,0,0-.15.243l.848,1.7a.61.61,0,0,1,0,.489l-.848,1.7a.154.154,0,0,0,.15.243H2.39a5.1,5.1,0,0,0,9.1,0h2.357a.154.154,0,0,0,.15-.243ZM9.5,73.828l-1.3.943a.4.4,0,0,0-.137.421L8.561,76.7v.014c.046.142-.014.189-.137.1L8.266,76.7l-1.14-.828a.4.4,0,0,0-.44,0L5.543,76.7l-.159.118c-.123.087-.183.044-.137-.1l.005-.016.492-1.512a.4.4,0,0,0-.137-.421l-1.3-.943c-.123-.087-.1-.161.052-.161H5.969a.4.4,0,0,0,.358-.26l.347-1.072.148-.457c.046-.142.123-.142.17,0l.148.457.347,1.072a.4.4,0,0,0,.358.26H9.452C9.6,73.666,9.627,73.738,9.5,73.828Z" transform="translate(399.971 2668.7)"/>
</svg>
