<svg xmlns="http://www.w3.org/2000/svg" viewBox="1179.737 1013.125 32 32">
  <defs>
    <style>
      .cls-1 {
        fill: #fc0;
      }

      .cls-2 {
        fill: #f33;
      }

      .cls-3 {
        fill: #096;
      }
    </style>
  </defs>
  <g id="settings" transform="translate(1211.737 1006.275) rotate(90)">
    <g id="Group_29" data-name="Group 29" transform="translate(6.85)">
      <path id="Path_209" data-name="Path 209" class="cls-1" d="M177.774,15.6V.9a.926.926,0,0,0-1.852,0V15.6a4.543,4.543,0,0,0,0,8.954v6.543a.926.926,0,0,0,1.852,0V24.551a4.543,4.543,0,0,0,0-8.954Zm-.926,7.242a2.766,2.766,0,1,1,2.846-2.765A2.808,2.808,0,0,1,176.848,22.839Z" transform="translate(-160.814)"/>
      <path id="Path_210" data-name="Path 210" class="cls-2" d="M12.474,8.055V.9a.926.926,0,0,0-1.852,0V8.055a4.543,4.543,0,0,0,0,8.954V31.094a.926.926,0,0,0,1.852,0V17a4.539,4.539,0,0,0,0-8.948ZM11.548,15.3a2.766,2.766,0,1,1,2.846-2.765A2.808,2.808,0,0,1,11.548,15.3Z" transform="translate(-6.85)"/>
      <path id="Path_211" data-name="Path 211" class="cls-3" d="M342.074,8.055V.9a.926.926,0,0,0-1.852,0V8.055a4.543,4.543,0,0,0,0,8.954V31.1a.926.926,0,0,0,1.852,0V17a4.539,4.539,0,0,0,0-8.948Zm-.926,7.242a2.766,2.766,0,1,1,2.846-2.765A2.808,2.808,0,0,1,341.148,15.3Z" transform="translate(-313.846)"/>
    </g>
  </g>
</svg>
