<svg xmlns="http://www.w3.org/2000/svg" viewBox="-287 660 18 15.231">
  <defs>
    <style>
      .cls-1 {
        fill: #333;
      }
    </style>
  </defs>
  <g id="shopping-cart-black-shape" transform="translate(-288 609.457)">
    <g id="Group_15" data-name="Group 15" transform="translate(1 50.543)">
      <path id="Path_63" data-name="Path 63" class="cls-1" d="M365.446,366.838a1.385,1.385,0,1,0,.406-.979A1.334,1.334,0,0,0,365.446,366.838Z" transform="translate(-351.6 -352.991)"/>
      <path id="Path_64" data-name="Path 64" class="cls-1" d="M17.794,38.133a.665.665,0,0,0-.487-.206H4.316q-.011-.076-.049-.276t-.059-.319a1.908,1.908,0,0,0-.081-.286.862.862,0,0,0-.141-.265.69.69,0,0,0-.216-.168.66.66,0,0,0-.308-.07H.692a.666.666,0,0,0-.487.206.679.679,0,0,0,0,.974.666.666,0,0,0,.487.206H2.9l1.915,8.9q-.021.043-.222.411t-.319.644a1.188,1.188,0,0,0-.119.427A.7.7,0,0,0,4.846,49H15.923a.692.692,0,0,0,0-1.385H5.971a2.088,2.088,0,0,0,.26-.692A1.169,1.169,0,0,0,6.2,46.69q-.027-.13-.065-.287t-.049-.232l11.294-1.32a.672.672,0,0,0,.443-.233.682.682,0,0,0,.173-.46V38.62A.666.666,0,0,0,17.794,38.133Z" transform="translate(0 -36.543)"/>
      <path id="Path_65" data-name="Path 65" class="cls-1" d="M109.632,366.838a1.385,1.385,0,1,0,.406-.979A1.333,1.333,0,0,0,109.632,366.838Z" transform="translate(-105.478 -352.991)"/>
    </g>
  </g>
</svg>
