<svg xmlns="http://www.w3.org/2000/svg" viewBox="-294.714 306.5 14.714 17.167">
  <defs>
    <style>
      .cls-1 {
        fill: #fff;
      }
    </style>
  </defs>
  <g id="set-timer-button" transform="translate(-332.964 306.5)">
    <g id="timer" transform="translate(38.25)">
      <path id="Path_75" data-name="Path 75" class="cls-1" d="M48.06,0h-4.9V1.635h4.9ZM44.79,10.627h1.635v-4.9H44.79Zm6.54-5.4,1.226-1.144a15.693,15.693,0,0,0-1.226-1.144L50.185,4.087a7.435,7.435,0,0,0-4.578-1.635A7.357,7.357,0,1,0,52.964,9.81,6.973,6.973,0,0,0,51.329,5.232Zm-5.722,10.3A5.722,5.722,0,1,1,51.329,9.81,5.687,5.687,0,0,1,45.607,15.532Z" transform="translate(-38.25)"/>
    </g>
  </g>
</svg>
