<svg xmlns="http://www.w3.org/2000/svg" viewBox="-1201 476 12 9.825">
  <defs>
    <style>
      .cls-1 {
        fill: #1da1f2;
      }
    </style>
  </defs>
  <g id="twitter" transform="translate(-1200.998 447.903)">
    <path id="XMLID_827_" class="cls-1" d="M11.726,29.231a4.549,4.549,0,0,1-.58.211,2.566,2.566,0,0,0,.522-.919.194.194,0,0,0-.283-.225,4.567,4.567,0,0,1-1.35.534,2.577,2.577,0,0,0-4.379,1.841,2.628,2.628,0,0,0,.021.333A6.6,6.6,0,0,1,1.15,28.6a.194.194,0,0,0-.317.025A2.58,2.58,0,0,0,1.1,31.594a2.182,2.182,0,0,1-.345-.154.194.194,0,0,0-.287.165c0,.011,0,.023,0,.034a2.585,2.585,0,0,0,1.261,2.215c-.065-.007-.131-.016-.2-.028a.194.194,0,0,0-.221.249A2.575,2.575,0,0,0,3.2,35.8a4.557,4.557,0,0,1-2.436.7,4.661,4.661,0,0,1-.546-.032.194.194,0,0,0-.127.355,6.947,6.947,0,0,0,3.757,1.1,6.683,6.683,0,0,0,5.178-2.274,7.209,7.209,0,0,0,1.794-4.7c0-.071,0-.142,0-.213a5.008,5.008,0,0,0,1.152-1.221.194.194,0,0,0-.239-.285Z" transform="translate(0)"/>
  </g>
</svg>
