<svg xmlns="http://www.w3.org/2000/svg" xmlns:xlink="http://www.w3.org/1999/xlink" viewBox="1037 261 19 19">
  <defs>
    <style>
      .cls-1 {
        fill: #fff;
        stroke: #b7b7b7;
      }

      .cls-2 {
        clip-path: url(#clip-path);
      }

      .cls-3 {
        fill: #2f76d1;
      }
    </style>
    <clipPath id="clip-path">
      <circle id="Ellipse_7" data-name="Ellipse 7" class="cls-1" cx="9.5" cy="9.5" r="9.5" transform="translate(174 198)"/>
    </clipPath>
  </defs>
  <g id="Mask_Group_2" data-name="Mask Group 2" class="cls-2" transform="translate(863 63)">
    <g id="update-arrows" transform="translate(177.727 201.529)">
      <g id="Group_3" data-name="Group 3" transform="translate(0 0.505)">
        <path id="Path_50" data-name="Path 50" class="cls-3" d="M11.385,1.454a.419.419,0,0,0-.5.322l-.3,1.421A5.449,5.449,0,0,0,.434,5.953a.419.419,0,1,0,.838,0,4.611,4.611,0,0,1,8.6-2.315l-1.4-.3a.419.419,0,0,0-.176.82l2.4.514a.419.419,0,0,0,.5-.322l.514-2.4A.419.419,0,0,0,11.385,1.454Z" transform="translate(-0.17 -0.505)"/>
        <path id="Path_51" data-name="Path 51" class="cls-3" d="M10.793,8.567A.419.419,0,0,0,10.388,9a4.61,4.61,0,0,1-4.455,4.76l-.153,0a4.609,4.609,0,0,1-3.921-2.185l1.457.391a.419.419,0,0,0,.217-.81l-2.369-.635a.419.419,0,0,0-.513.3L.014,13.187a.419.419,0,1,0,.81.217l.357-1.332a5.446,5.446,0,0,0,4.6,2.527c.06,0,.121,0,.181,0a5.448,5.448,0,0,0,5.265-5.625A.419.419,0,0,0,10.793,8.567Z" transform="translate(0 -3.668)"/>
      </g>
    </g>
  </g>
</svg>
