<svg xmlns="http://www.w3.org/2000/svg" viewBox="997.7 214 50.6 66">
  <defs>
    <style>
      .cls-1 {
        fill: #b7b7b7;
      }
    </style>
  </defs>
  <path id="user" class="cls-1" d="M52.815,47.178,42.307,41.924a2.893,2.893,0,0,1-1.607-2.6V35.6c.252-.308.517-.659.791-1.046a25.175,25.175,0,0,0,3.249-6.379A4.365,4.365,0,0,0,47.3,24.2V19.8a4.387,4.387,0,0,0-1.1-2.888V11.062a9.861,9.861,0,0,0-2.3-7.178C41.639,1.307,37.973,0,33,0S24.361,1.307,22.1,3.883a9.863,9.863,0,0,0-2.3,7.179v5.851A4.387,4.387,0,0,0,18.7,19.8v4.4a4.374,4.374,0,0,0,1.647,3.42A23.086,23.086,0,0,0,24.2,35.581v3.64a2.907,2.907,0,0,1-1.515,2.552l-9.813,5.353A9.919,9.919,0,0,0,7.7,55.838V59.4C7.7,64.621,24.25,66,33,66s25.3-1.379,25.3-6.6V56.053A9.87,9.87,0,0,0,52.815,47.178Z" transform="translate(990 214)"/>
</svg>
