<svg xmlns="http://www.w3.org/2000/svg" viewBox="1180.066 1174.821 32 30">
  <defs>
    <style>
      .cls-1 {
        fill: #cee879;
      }

      .cls-2 {
        fill: #8cd19d;
      }

      .cls-3 {
        fill: #5cacc4;
      }

      .cls-4 {
        fill: #ff5254;
      }

      .cls-5 {
        fill: #fcb653;
      }
    </style>
  </defs>
  <g id="users-group" transform="translate(1180.066 1152.421)">
    <ellipse id="Ellipse_24" data-name="Ellipse 24" class="cls-1" cx="4.101" cy="4.195" rx="4.101" ry="4.195" transform="translate(8.78 22.4)"/>
    <path id="Path_214" data-name="Path 214" class="cls-1" d="M173.581,166.977a4.616,4.616,0,0,1,.842-2.461,5.176,5.176,0,0,0-1.074-.116h-3.48a5.118,5.118,0,0,0-1.068.11,4.635,4.635,0,0,1,.848,2.644,4.372,4.372,0,0,1,2.155-.568A4.589,4.589,0,0,1,173.581,166.977Z" transform="translate(-158.724 -133.329)"/>
    <path id="Path_215" data-name="Path 215" class="cls-2" d="M260.5,154.3a4.787,4.787,0,0,1,2.179,3.56,3.686,3.686,0,0,0,1.594.366A3.866,3.866,0,1,0,260.5,154.3Z" transform="translate(-244.951 -120.278)"/>
    <path id="Path_216" data-name="Path 216" class="cls-3" d="M159.478,223.531a3.866,3.866,0,1,0-3.778-3.865A3.823,3.823,0,0,0,159.478,223.531Z" transform="translate(-146.406 -181.591)"/>
    <path id="Path_217" data-name="Path 217" class="cls-3" d="M119.146,346.7h-3.205a4.9,4.9,0,0,0-4.841,4.952v4.012l.012.061.269.085a21.639,21.639,0,0,0,6.578,1.087,13.186,13.186,0,0,0,5.742-1.105l.251-.128h.024v-4.012A4.891,4.891,0,0,0,119.146,346.7Z" transform="translate(-104.468 -304.497)"/>
    <path id="Path_218" data-name="Path 218" class="cls-2" d="M277.82,281.4h-3.181a4.843,4.843,0,0,1-1.439,3.322,5.87,5.87,0,0,1,4.107,5.63v1.233a12.623,12.623,0,0,0,5.074-1.093l.251-.134h.024v-4.012A4.89,4.89,0,0,0,277.82,281.4Z" transform="translate(-256.893 -243.185)"/>
    <path id="Path_219" data-name="Path 219" class="cls-4" d="M364.9,90.6a4.787,4.787,0,0,1,2.179,3.56,3.686,3.686,0,0,0,1.594.366A3.866,3.866,0,1,0,364.9,90.6Z" transform="translate(-343.119 -60.467)"/>
    <path id="Path_220" data-name="Path 220" class="cls-4" d="M382.22,217.7h-3.181a4.817,4.817,0,0,1-1.439,3.316,5.87,5.87,0,0,1,4.107,5.63v1.233a12.623,12.623,0,0,0,5.074-1.093l.251-.128h.03v-4.012A4.9,4.9,0,0,0,382.22,217.7Z" transform="translate(-355.061 -183.375)"/>
    <path id="Path_221" data-name="Path 221" class="cls-5" d="M48.472,158.037a3.682,3.682,0,0,0,2.012-.6,4.827,4.827,0,0,1,1.761-3.053c.006-.073.012-.147.012-.22a3.78,3.78,0,1,0-3.784,3.871Z" transform="translate(-42.032 -120.09)"/>
    <path id="Path_222" data-name="Path 222" class="cls-5" d="M9.837,284.622a4.828,4.828,0,0,1-1.439-3.3c-.119-.006-.233-.018-.352-.018H4.841A4.908,4.908,0,0,0,0,286.252v4.012l.012.061.269.085a22.347,22.347,0,0,0,5.45,1.05v-1.209A5.87,5.87,0,0,1,9.837,284.622Z" transform="translate(0 -243.091)"/>
  </g>
</svg>
