<svg xmlns="http://www.w3.org/2000/svg" viewBox="1450 1943 18 18">
  <defs>
    <style>
      .cls-1 {
        fill: #2f76d1;
      }
    </style>
  </defs>
  <g id="zoom-increasing-symbol" transform="translate(1449.993 1943)">
    <path id="Path_344" data-name="Path 344" class="cls-1" d="M10.426,6.982H8.178V4.73a.562.562,0,1,0-1.124,0V6.982H4.806c-.311,0-.562.1-.562.414s.251.713.562.713H7.054V10.36a.562.562,0,1,0,1.124,0V8.109h2.248a.563.563,0,0,0,0-1.126Zm7.41,10.038-4.647-4.573a7.351,7.351,0,0,0,1.965-5A7.513,7.513,0,0,0,7.58,0,7.513,7.513,0,0,0,.007,7.453,7.513,7.513,0,0,0,7.58,14.905a7.616,7.616,0,0,0,4.767-1.664l4.665,4.591a.589.589,0,0,0,.824,0A.567.567,0,0,0,17.836,17.021ZM7.58,13.759A6.358,6.358,0,0,1,1.172,7.453,6.358,6.358,0,0,1,7.58,1.147a6.357,6.357,0,0,1,6.408,6.306A6.357,6.357,0,0,1,7.58,13.759Z"/>
  </g>
</svg>
